<svg width="25" height="24" viewBox="0 0 25 24" fill="none" xmlns="http://www.w3.org/2000/svg">
<g clip-path="url(#clip0_324_6279)">
<path d="M24.6146 4.66634C24.1333 3.87234 23.2479 3.33301 22.2222 3.33301H12.5V4.66634H24.6146ZM0 16.6663H25V17.9997H0V16.6663ZM12.5 11.333H25V12.6663H12.5V11.333ZM12.5 8.66634H25V9.99967H12.5V8.66634ZM0 13.9997H25V15.333H0V13.9997ZM2.77778 20.6663H22.2222C23.2479 20.6663 24.1333 20.127 24.6146 19.333H0.385417C0.866667 20.127 1.75208 20.6663 2.77778 20.6663ZM12.5 5.99967H25V7.33301H12.5V5.99967Z" fill="#C60A0A"/>
<path d="M0.0472222 18.453C0.0590278 18.515 0.0722222 18.577 0.0881944 18.6377C0.10625 18.705 0.128472 18.7697 0.152083 18.835C0.213889 19.0077 0.288889 19.1743 0.383333 19.3303L0.385417 19.3337H24.6146L24.616 19.331C24.7092 19.1738 24.7864 19.0084 24.8465 18.837C24.8923 18.7119 24.9276 18.5835 24.9521 18.453C24.9806 18.3063 25 18.1557 25 18.0003H0C0 18.1557 0.0194444 18.3057 0.0472222 18.453ZM0 15.3337H25V16.667H0V15.3337ZM0 12.667V14.0003H25V12.667H12.5H0ZM12.5 10.0003H25V11.3337H12.5V10.0003ZM12.5 7.33366H25V8.66699H12.5V7.33366ZM0.0888889 5.36299C0.10625 5.29499 0.130556 5.23033 0.152778 5.16499C0.128662 5.23012 0.107347 5.29618 0.0888889 5.36299ZM12.5 6.00033H25C25 5.84499 24.9806 5.69433 24.9521 5.54699C24.9278 5.4164 24.8922 5.28796 24.8458 5.16299C24.7856 4.99087 24.7082 4.82476 24.6146 4.66699H12.5V6.00033Z" fill="#FEFBFB"/>
<path d="M12.5 3.33301H2.77778C2.04107 3.33301 1.33453 3.61396 0.813592 4.11406C0.292658 4.61415 0 5.29243 0 5.99967L0 12.6663H12.5V3.33301Z" fill="#3C3B6E"/>
<path d="M1.38959 5.15099L1.81875 5.45033L1.65487 5.93366L2.08334 5.63499L2.5125 5.93366L2.34862 5.45033L2.77778 5.15099H2.24723L2.08334 4.66699L1.92014 5.15099H1.38959ZM2.77848 6.48433L3.20764 6.78366L3.04375 7.26699L3.47223 6.96833L3.90139 7.26699L3.7375 6.78366L4.16667 6.48433H3.63612L3.47223 6.00033L3.30903 6.48433H2.77848ZM5.55625 6.48433L5.98542 6.78366L5.82153 7.26699L6.25 6.96833L6.67917 7.26699L6.51528 6.78366L6.94445 6.48433H6.41389L6.25 6.00033L6.08681 6.48433H5.55625ZM8.33403 6.48433L8.7632 6.78366L8.59931 7.26699L9.02778 6.96833L9.45695 7.26699L9.29306 6.78366L9.72223 6.48433H9.19167L9.02778 6.00033L8.86459 6.48433H8.33403ZM2.77848 9.15099L3.20764 9.45033L3.04375 9.93366L3.47223 9.63499L3.90139 9.93366L3.7375 9.45033L4.16667 9.15099H3.63612L3.47223 8.66699L3.30903 9.15099H2.77848ZM5.55625 9.15099L5.98542 9.45033L5.82153 9.93366L6.25 9.63499L6.67917 9.93366L6.51528 9.45033L6.94445 9.15099H6.41389L6.25 8.66699L6.08681 9.15099H5.55625ZM8.33403 9.15099L8.7632 9.45033L8.59931 9.93366L9.02778 9.63499L9.45695 9.93366L9.29306 9.45033L9.72223 9.15099H9.19167L9.02778 8.66699L8.86459 9.15099H8.33403ZM4.16737 5.15099L4.59653 5.45033L4.43264 5.93366L4.86112 5.63499L5.29028 5.93366L5.12639 5.45033L5.55556 5.15099H5.025L4.86112 4.66699L4.69792 5.15099H4.16737ZM6.94514 5.15099L7.37431 5.45033L7.21042 5.93366L7.63889 5.63499L8.06806 5.93366L7.90417 5.45033L8.33334 5.15099H7.80278L7.63889 4.66699L7.4757 5.15099H6.94514ZM9.72292 5.15099L10.1521 5.45033L9.9882 5.93366L10.4167 5.63499L10.8458 5.93366L10.6819 5.45033L11.1111 5.15099H10.5806L10.4167 4.66699L10.2535 5.15099H9.72292ZM1.38959 7.81766L1.81875 8.11699L1.65487 8.60033L2.08334 8.30166L2.5125 8.60033L2.34862 8.11699L2.77778 7.81766H2.24723L2.08334 7.33366L1.92014 7.81766H1.38959ZM4.43264 8.60033L4.86112 8.30166L5.29028 8.60033L5.12639 8.11699L5.55556 7.81766H5.025L4.86112 7.33366L4.69792 7.81766H4.16737L4.59653 8.11699L4.43264 8.60033ZM6.94514 7.81766L7.37431 8.11699L7.21042 8.60033L7.63889 8.30166L8.06806 8.60033L7.90417 8.11699L8.33334 7.81766H7.80278L7.63889 7.33366L7.4757 7.81766H6.94514ZM9.72292 7.81766L10.1521 8.11699L9.9882 8.60033L10.4167 8.30166L10.8458 8.60033L10.6819 8.11699L11.1111 7.81766H10.5806L10.4167 7.33366L10.2535 7.81766H9.72292ZM1.38959 10.4843L1.81875 10.7837L1.65487 11.267L2.08334 10.9683L2.5125 11.267L2.34862 10.7837L2.77778 10.4843H2.24723L2.08334 10.0003L1.92014 10.4843H1.38959ZM4.43264 11.267L4.86112 10.9683L5.29028 11.267L5.12639 10.7837L5.55556 10.4843H5.025L4.86112 10.0003L4.69792 10.4843H4.16737L4.59653 10.7837L4.43264 11.267ZM6.94514 10.4843L7.37431 10.7837L7.21042 11.267L7.63889 10.9683L8.06806 11.267L7.90417 10.7837L8.33334 10.4843H7.80278L7.63889 10.0003L7.4757 10.4843H6.94514ZM9.72292 10.4843L10.1521 10.7837L9.9882 11.267L10.4167 10.9683L10.8458 11.267L10.6819 10.7837L11.1111 10.4843H10.5806L10.4167 10.0003L10.2535 10.4843H9.72292Z" fill="#FEFBFB"/>
</g>
<defs>
<clipPath id="clip0_324_6279">
<rect width="24" height="24" fill="white" transform="translate(0.5)"/>
</clipPath>
</defs>
</svg>
