<svg width="126" height="138" viewBox="0 0 126 138" fill="none" xmlns="http://www.w3.org/2000/svg">
<path d="M90.1743 22.3958C80.2043 8.68071 65.7105 2.28906 50.5641 2.28906C50.5641 2.28906 13.524 2.28906 2.5547 35.4491C-1.49634 47.6698 -0.596115 60.9392 4.31015 72.8403C6.15217 77.3645 8.47297 81.6787 11.2329 85.7091C20.8159 99.5277 50.5956 137.252 50.5956 137.252H57.0683C65.3774 125.711 86.2943 87.3746 92.56 75.0819C100.414 59.6564 101.621 38.1408 90.1743 22.3958ZM56.7622 83.7331C50.5036 83.7331 44.3855 81.8772 39.1817 78.4C33.9779 74.9228 29.9222 69.9805 27.5273 64.1982C25.1324 58.4159 24.506 52.0533 25.7274 45.915C26.9487 39.7767 29.9629 34.1384 34.3887 29.7132C38.8145 25.288 44.4532 22.2747 50.5917 21.0542C56.7302 19.8338 63.0927 20.4611 68.8746 22.8567C74.6566 25.2524 79.5983 29.3089 83.0747 34.5132C86.5512 39.7175 88.4063 45.8358 88.4054 52.0944C88.4042 60.4859 85.0698 68.5334 79.1357 74.4666C73.2016 80.3999 65.1537 83.7331 56.7622 83.7331Z" fill="#FA275A"/>
<path opacity="0.4" d="M90.1743 22.3958C80.2043 8.68071 65.7105 2.28906 50.5641 2.28906C50.5641 2.28906 13.524 2.28906 2.5547 35.4491C-1.49634 47.6698 -0.596115 60.9392 4.31015 72.8403C6.15217 77.3645 8.47297 81.6787 11.2329 85.7091C20.8159 99.5277 50.5956 137.252 50.5956 137.252H57.0683C65.3774 125.711 86.2943 87.3746 92.56 75.0819C100.414 59.6564 101.621 38.1408 90.1743 22.3958ZM56.7622 83.7331C50.5036 83.7331 44.3855 81.8772 39.1817 78.4C33.9779 74.9228 29.9222 69.9805 27.5273 64.1982C25.1324 58.4159 24.506 52.0533 25.7274 45.915C26.9487 39.7767 29.9629 34.1384 34.3887 29.7132C38.8145 25.288 44.4532 22.2747 50.5917 21.0542C56.7302 19.8338 63.0927 20.4611 68.8746 22.8567C74.6566 25.2524 79.5983 29.3089 83.0747 34.5132C86.5512 39.7175 88.4063 45.8358 88.4054 52.0944C88.4042 60.4859 85.0698 68.5334 79.1357 74.4666C73.2016 80.3999 65.1537 83.7331 56.7622 83.7331Z" fill="black"/>
<path d="M96.6873 22.652C86.7172 8.94146 72.2235 2.5498 57.0771 2.5498C57.0771 2.5498 20.037 2.54981 9.06766 35.7099C5.01661 47.9305 5.91684 61.2 10.8276 73.101C12.6671 77.6256 14.9865 81.9398 17.7459 85.9699C27.3289 99.7839 57.0951 137.526 57.0951 137.526C57.0951 137.526 91.4885 90.2145 99.0594 75.3606C106.927 59.9081 108.138 38.4016 96.6873 22.652ZM56.8025 83.9939C50.5441 83.9939 44.4262 82.138 39.2225 78.661C34.0188 75.184 29.963 70.242 27.568 64.46C25.173 58.678 24.5464 52.3156 25.7673 46.1774C26.9883 40.0392 30.002 34.4009 34.4274 29.9756C38.8528 25.5502 44.4911 22.5365 50.6292 21.3155C56.7674 20.0946 63.1298 20.7212 68.9118 23.1162C74.6939 25.5112 79.6358 29.567 83.1128 34.7707C86.5898 39.9744 88.4457 46.0923 88.4457 52.3507C88.4768 56.5148 87.6796 60.6436 86.1004 64.4967C84.5212 68.3499 82.1916 71.8507 79.247 74.7952C76.3025 77.7398 72.8018 80.0694 68.9486 81.6486C65.0954 83.2278 60.9666 84.025 56.8025 83.9939Z" fill="#FA275A"/>
<path d="M56.7621 20.4512C50.223 20.4511 43.8445 22.4769 38.5038 26.2499C33.163 30.0229 29.1223 35.3579 26.9374 41.5211C29.3788 36.1253 33.5199 31.6774 38.7278 28.8573C43.9357 26.0372 49.9238 25 55.7767 25.9043C61.6297 26.8086 67.0256 29.6047 71.1395 33.865C75.2534 38.1254 77.8591 43.6157 78.5582 49.4967C79.2573 55.3777 78.0113 61.3259 75.0109 66.432C72.0104 71.5381 67.4204 75.5212 61.9425 77.7724C56.4647 80.0237 50.4003 80.4192 44.6764 78.8986C38.9526 77.378 33.8841 74.0249 30.2457 69.3518C33.2367 73.9459 37.37 77.6841 42.2405 80.1999C47.1111 82.7158 52.5517 83.9229 58.0293 83.7031C63.5068 83.4832 68.8332 81.8439 73.4865 78.9459C78.1397 76.0478 81.9602 71.9904 84.5733 67.1714C87.1864 62.3523 88.5026 56.937 88.3928 51.4561C88.283 45.9753 86.751 40.617 83.9469 35.9065C81.1429 31.196 77.163 27.2948 72.3974 24.5855C67.6318 21.8761 62.244 20.4515 56.7621 20.4512Z" fill="#FA275A"/>
<path opacity="0.4" d="M56.7621 20.4512C50.223 20.4511 43.8445 22.4769 38.5038 26.2499C33.163 30.0229 29.1223 35.3579 26.9374 41.5211C29.3788 36.1253 33.5199 31.6774 38.7278 28.8573C43.9357 26.0372 49.9238 25 55.7767 25.9043C61.6297 26.8086 67.0256 29.6047 71.1395 33.865C75.2534 38.1254 77.8591 43.6157 78.5582 49.4967C79.2573 55.3777 78.0113 61.3259 75.0109 66.432C72.0104 71.5381 67.4204 75.5212 61.9425 77.7724C56.4647 80.0237 50.4003 80.4192 44.6764 78.8986C38.9526 77.378 33.8841 74.0249 30.2457 69.3518C33.2367 73.9459 37.37 77.6841 42.2405 80.1999C47.1111 82.7158 52.5517 83.9229 58.0293 83.7031C63.5068 83.4832 68.8332 81.8439 73.4865 78.9459C78.1397 76.0478 81.9602 71.9904 84.5733 67.1714C87.1864 62.3523 88.5026 56.937 88.3928 51.4561C88.283 45.9753 86.751 40.617 83.9469 35.9065C81.1429 31.196 77.163 27.2948 72.3974 24.5855C67.6318 21.8761 62.244 20.4515 56.7621 20.4512Z" fill="black"/>
<path d="M119.855 66.6011C118.582 65.7265 117.037 65.3383 115.502 65.5073C112.91 65.8044 109.151 66.187 109.151 66.187V66.3085L90.9981 67.4248L85.4391 56.1494L77.0175 61.6993C77.0175 61.6993 78.1247 63.4728 82.8465 72.1916C83.7681 73.8933 85.19 75.2712 86.9199 76.1389C88.6497 77.0067 90.6043 77.3225 92.5195 77.0438L113.895 73.893V73.8525C116.106 73.731 118.496 73.5239 118.847 73.2043C119.513 72.6012 120.116 70.3956 120.116 70.3956C120.116 70.3956 123.924 72.6462 124.658 72.7092C125.391 72.7722 125.526 72.1465 125.981 71.4984C126.305 71.0978 122.38 68.3206 119.855 66.6011Z" fill="#FFBE9D"/>
<path d="M86.5732 55.4295C86.5732 55.4295 83.0443 48.6373 79.8214 42.2231C75.8514 34.3506 67.0967 32.7707 67.0967 32.7707L54.4124 31.1052C54.4124 31.1052 43.7986 26.3115 33.9411 38.2171L25.839 47.2689L27.5629 48.8218L35.5975 56.0237L37.1864 57.455L40.8234 53.7101L39.1354 63.194L36.1512 76.4184L42.6013 75.6397L46.9629 48.9703L71.5573 50.9284L69.5948 67.7582C69.9909 67.6997 72.9662 67.1145 73.9339 63.0725C74.2449 61.7826 74.2449 60.4373 73.9339 59.1475L75.3563 62.7889L86.5732 55.4295Z" fill="#455A64"/>
<path d="M46.9319 48.9834L42.5703 75.6528L36.1201 76.4315C40.4286 80.1488 45.6609 82.6337 51.2645 83.6241C56.8682 84.6144 62.6352 84.0733 67.9568 82.0579L69.5953 67.7578L71.5263 50.9414L46.9319 48.9834Z" fill="#263238"/>
<path d="M48.3897 29.7812L47.8585 51.4453L51.9456 52.0935L52.4947 30.1368C52.4947 30.1368 51.0678 29.4616 48.3897 29.7812Z" fill="#263238"/>
<path d="M65.7465 51.5534L69.1268 32.9456C69.3204 32.7385 72.0931 33.7333 72.9303 34.6785L69.8965 51.9405L65.7465 51.5534Z" fill="#263238"/>
<path d="M52.108 48.9071C52.1515 49.0252 52.1728 49.1504 52.171 49.2762C52.2017 49.6176 52.2017 49.9611 52.171 50.3025C52.1394 50.8263 51.9634 51.3311 51.6624 51.7609C51.4769 52.0176 51.2311 52.2247 50.9467 52.364C50.6323 52.5059 50.2821 52.5483 49.9429 52.4856C49.6251 52.4184 49.3245 52.2866 49.0597 52.0984C48.7949 51.9103 48.5716 51.6698 48.4036 51.3918C48.1431 50.942 47.9891 50.4384 47.9534 49.9199C47.9236 49.5784 47.9236 49.2351 47.9534 48.8936C47.9512 48.7659 47.9741 48.6389 48.0209 48.52C48.0615 48.52 48.0209 49.0602 48.1155 49.9019C48.1783 50.3798 48.3392 50.8395 48.5881 51.2522C48.7439 51.5007 48.9481 51.7153 49.1886 51.8831C49.4291 52.0509 49.701 52.1685 49.988 52.229C50.2723 52.2792 50.5651 52.2475 50.8322 52.1375C51.0992 52.0275 51.3294 51.8438 51.4958 51.6078C51.7831 51.2105 51.9616 50.745 52.0135 50.2575C52.1125 49.4473 52.063 48.9071 52.108 48.9071Z" fill="#455A64"/>
<path d="M49.6953 50.8196C49.4643 50.7277 49.2793 50.5478 49.1809 50.3194C49.0826 50.0911 49.079 49.833 49.1709 49.602C49.2628 49.371 49.4428 49.186 49.6711 49.0877C49.8994 48.9893 50.1575 48.9857 50.3885 49.0777C50.5029 49.1232 50.6072 49.1908 50.6954 49.2766C50.7837 49.3624 50.8541 49.4648 50.9028 49.5778C50.9515 49.6909 50.9775 49.8124 50.9792 49.9355C50.9809 50.0586 50.9584 50.1808 50.9129 50.2952C50.8674 50.4096 50.7998 50.5139 50.7139 50.6021C50.6281 50.6904 50.5258 50.7609 50.4127 50.8096C50.2996 50.8583 50.1781 50.8842 50.055 50.8859C49.9319 50.8877 49.8097 50.8651 49.6953 50.8196Z" fill="#455A64"/>
<path d="M68.9244 50.9372C68.9253 51.1235 68.8709 51.3058 68.7681 51.4611C68.6653 51.6164 68.5187 51.7377 68.3468 51.8096C68.175 51.8814 67.9857 51.9007 67.8029 51.8649C67.6202 51.8291 67.4521 51.7399 67.3201 51.6085C67.1881 51.4771 67.098 51.3095 67.0614 51.1269C67.0247 50.9443 67.0431 50.7549 67.1141 50.5828C67.1852 50.4106 67.3058 50.2634 67.4606 50.1598C67.6154 50.0563 67.7974 50.001 67.9837 50.001C68.2324 50.001 68.471 50.0995 68.6473 50.2749C68.8236 50.4504 68.9233 50.6885 68.9244 50.9372Z" fill="#455A64"/>
<path d="M70.1802 50.2887C70.1727 50.6627 70.1012 51.0326 69.9687 51.3825C69.8422 51.7802 69.6284 52.1447 69.343 52.4492C69.1607 52.638 68.9381 52.7831 68.6917 52.8735C68.4454 52.964 68.1817 52.9974 67.9206 52.9714C67.3994 52.915 66.9179 52.6662 66.5703 52.2737C66.2997 51.9532 66.1194 51.5663 66.0481 51.1529C65.9959 50.8815 65.9868 50.6035 66.0211 50.3292C66.0266 50.227 66.0543 50.1271 66.1022 50.0366C66.1083 50.4006 66.1444 50.7634 66.2102 51.1214C66.2978 51.4956 66.4772 51.8422 66.7323 52.1297C67.0495 52.4715 67.4795 52.6872 67.9431 52.7373C68.1721 52.7613 68.4036 52.7332 68.6202 52.6553C68.8369 52.5773 69.0332 52.4515 69.1945 52.2872C69.4666 52.0131 69.6783 51.685 69.8156 51.324C70.0497 50.6983 70.1397 50.2752 70.1802 50.2887Z" fill="#455A64"/>
<path d="M49.6189 59.206C49.5874 59.206 49.5739 59.0259 49.5829 58.7558C49.5829 58.6163 49.5829 58.4453 49.6054 58.2607C49.6054 58.1617 49.6054 58.0627 49.628 57.9681V57.8151V57.7341V57.6576L49.7585 57.5405C50.2872 57.5585 50.8104 57.654 51.3114 57.8241C50.7849 57.883 50.2527 57.8648 49.7315 57.7701C49.7045 57.7971 49.979 57.5495 49.862 57.6576V57.7251V57.8061V57.9636C49.862 58.0627 49.8395 58.1572 49.826 58.2607C49.826 58.4498 49.7765 58.6163 49.754 58.7603C49.6955 59.0169 49.6505 59.206 49.6189 59.206Z" fill="#455A64"/>
<path d="M48.9619 65.3899C48.9026 64.8696 48.9193 64.3435 49.0114 63.828C49.0279 63.3039 49.1219 62.7851 49.2905 62.2886C49.3553 62.8085 49.3402 63.3352 49.2454 63.8505C49.2249 64.3745 49.1294 64.8929 48.9619 65.3899Z" fill="#455A64"/>
<path d="M49.8755 70.7601C49.3612 70.6333 48.8683 70.4316 48.4127 70.1614C48.4127 70.1884 48.2911 69.9409 48.3451 70.0444V69.9769V69.8959V69.7383L48.3856 69.4457C48.4127 69.2612 48.4397 69.0901 48.4622 68.9506C48.5162 68.6715 48.5612 68.5005 48.5927 68.5005C48.6242 68.5005 48.6377 68.685 48.6287 68.9506C48.6287 69.0946 48.6197 69.2612 48.6017 69.4502C48.6017 69.5538 48.6017 69.6483 48.5747 69.7473V69.9004V69.9814V70.0534C48.6332 70.1569 48.4982 69.9094 48.5117 69.9364C49.0042 70.1426 49.4637 70.4201 49.8755 70.7601Z" fill="#455A64"/>
<path d="M54.0343 72.8259C53.2772 72.6298 52.567 72.2839 51.9458 71.8086C52.333 71.8723 52.7034 72.0131 53.0351 72.2227C53.4048 72.3556 53.7445 72.5606 54.0343 72.8259Z" fill="#455A64"/>
<path d="M58.9857 73.9655C58.5501 74.2679 58.0723 74.5045 57.5678 74.6677H57.4553H57.4193L57.3473 74.6317L57.2077 74.5597L56.9466 74.4247L56.4965 74.1771C56.2535 74.0331 56.1094 73.9295 56.1229 73.898C56.1364 73.8665 56.3075 73.898 56.5731 74.0286C56.7036 74.0826 56.8611 74.1501 57.0232 74.2311L57.2887 74.3571L57.4328 74.4247L57.5048 74.4562H57.5408H57.4643C57.9443 74.2181 58.457 74.0527 58.9857 73.9655Z" fill="#455A64"/>
<path d="M62.3481 72.6008C62.3706 72.6638 62.0151 72.8619 61.5514 73.0509C61.0878 73.24 60.6917 73.3435 60.6512 73.285C60.6107 73.2265 60.9843 73.0239 61.4479 72.8349C61.9115 72.6458 62.3211 72.5423 62.3481 72.6008Z" fill="#455A64"/>
<path d="M65.6522 69.7607C65.7116 70.2869 65.6964 70.8188 65.6072 71.3407L65.5306 71.4397H65.4946L65.4181 71.4712L65.2741 71.5297L64.9995 71.6332C64.8195 71.6962 64.6619 71.7548 64.5224 71.7953C64.2523 71.8853 64.0723 71.9258 64.0723 71.8943C64.0723 71.8628 64.2163 71.7728 64.4684 71.6422L64.9185 71.4307L65.1931 71.3136L65.3371 71.2551L65.4091 71.2236H65.4496L65.3776 71.3226C65.3903 70.7912 65.4829 70.2647 65.6522 69.7607Z" fill="#455A64"/>
<path d="M66.2505 63.9277C66.31 64.9099 66.2081 65.8953 65.9489 66.8445C65.8861 66.3564 65.8983 65.8616 65.9849 65.3771C65.9973 64.8831 66.0869 64.3941 66.2505 63.9277Z" fill="#455A64"/>
<path d="M65.1479 59.277C65.6744 59.218 66.2067 59.2362 66.7279 59.331L66.8314 59.457V59.529V59.61V59.7631C66.8314 59.8621 66.8089 59.9566 66.7954 60.0557C66.7684 60.2447 66.7459 60.4113 66.7189 60.5553C66.6694 60.8344 66.6198 61.0054 66.5883 61.0054C66.5568 61.0054 66.5478 60.8209 66.5523 60.5553C66.5523 60.4113 66.5523 60.2402 66.5793 60.0512L66.6018 59.7586V59.601V59.4525L66.7054 59.5785C66.1742 59.5552 65.6494 59.4536 65.1479 59.277Z" fill="#455A64"/>
<path d="M59.625 58.6834C60.5564 58.6255 61.4909 58.7259 62.3887 58.9805C61.925 59.046 61.4537 59.0354 60.9934 58.949C60.526 58.9337 60.0641 58.844 59.625 58.6834Z" fill="#455A64"/>
<path d="M54.1022 58.0843C54.566 58.0188 55.0373 58.0294 55.4976 58.1159C55.9589 58.133 56.4145 58.2227 56.8479 58.3814C55.9165 58.4393 54.9821 58.3389 54.0842 58.0843H54.1022Z" fill="#455A64"/>
<path d="M25.1637 50.4588C25.1322 50.9989 25.1187 51.5436 25.1187 52.0927C25.1171 54.2306 25.3328 56.3631 25.7623 58.4573V58.5204C25.8163 58.7814 25.8794 59.038 25.9424 59.2946C26.1854 60.3118 26.478 61.3156 26.8021 62.3058C26.8426 62.4274 26.8831 62.5534 26.9281 62.6749C28.0894 62.4139 31.4563 59.4971 35.3318 55.8557L27.3017 48.6538C26.1899 49.7521 25.5283 50.3327 25.1637 50.4588Z" fill="#FFBE9D"/>
<path d="M75.8562 3.71094C76.1353 6.82124 79.6777 9.44092 82.8015 9.3464C84.5209 9.29238 86.2629 8.52718 87.9148 9.00431C90.6875 9.81001 91.8083 13.6765 94.6666 14.1941C96.7911 14.5812 98.7491 12.8438 100.905 12.7448C102.49 12.6592 103.984 13.4515 105.298 14.3427C106.613 15.2339 107.864 16.2647 109.349 16.7733C110.835 17.2819 112.23 16.3817 113.747 15.9181C114.121 16.8813 114.368 18.0696 114.85 19.0689C115.331 20.0682 115.917 21.9181 115.061 22.3142C115.061 22.3142 112.671 23.5521 111.289 23.4845C111.847 24.0473 112.544 24.4528 113.309 24.6599C114.074 24.8669 114.881 24.8683 115.646 24.6638C116.029 26.9774 116.317 29.6466 114.746 31.3886C114.012 32.1437 113.074 32.6679 112.046 32.8965C107.031 34.1928 101.787 30.6864 96.6966 31.6407C94.608 32.0368 92.695 33.162 90.584 33.4411C89.5429 33.5701 88.4865 33.4897 87.477 33.2044C86.4674 32.9192 85.5251 32.435 84.7055 31.7802C82.698 30.1553 81.3161 27.4366 78.7685 27.009C77.6387 26.8244 76.4954 27.1485 75.3881 27.4591C74.2808 27.7697 73.1375 28.0667 72.0077 27.8282C70.8779 27.5896 69.8336 26.6354 69.8832 25.4921" fill="#263238"/>
<path d="M65.8995 33.9174C66.4621 30.7666 67.1103 27.4942 67.1103 27.4942C67.1103 27.4942 71.2693 27.5347 73.0383 22.4079C74.7217 17.5196 75.937 5.7536 75.937 5.7536C73.2692 4.09289 70.1569 3.28894 67.0186 3.44988C63.8802 3.61082 60.8664 4.72893 58.3825 6.65383L54.2369 32.1979C53.7553 35.1642 55.9204 37.9369 59.0982 38.4275C62.2985 38.9497 65.3458 36.9062 65.8995 33.9174Z" fill="#FFBE9D"/>
<path d="M72.8267 14.5675C72.7978 14.7438 72.7011 14.9018 72.5573 15.0078C72.4135 15.1138 72.2339 15.1593 72.0569 15.1346C71.9692 15.1268 71.884 15.1014 71.8062 15.06C71.7285 15.0186 71.6599 14.962 71.6045 14.8936C71.5491 14.8252 71.5079 14.7463 71.4836 14.6616C71.4593 14.577 71.4522 14.4883 71.4628 14.4009C71.4927 14.2242 71.5903 14.0662 71.7348 13.9603C71.8794 13.8544 72.0595 13.809 72.237 13.8338C72.3243 13.8421 72.4091 13.8679 72.4863 13.9095C72.5635 13.9512 72.6316 14.0079 72.6865 14.0763C72.7415 14.1446 72.7822 14.2233 72.8063 14.3077C72.8303 14.392 72.8373 14.4804 72.8267 14.5675Z" fill="#263238"/>
<path d="M74.0555 14.0058C73.9565 14.0778 73.5109 13.6097 72.7817 13.4836C72.0525 13.3576 71.4583 13.6232 71.3953 13.5241C71.3323 13.4251 71.4764 13.3306 71.7374 13.2046C72.0914 13.04 72.4878 12.9897 72.8717 13.0605C73.2484 13.1291 73.5945 13.3131 73.862 13.5872C74.0555 13.7987 74.105 13.9698 74.0555 14.0058Z" fill="#263238"/>
<path d="M65.3548 13.3839C65.3249 13.5605 65.2273 13.7186 65.0827 13.8245C64.9382 13.9304 64.758 13.9758 64.5806 13.951C64.4932 13.9426 64.4085 13.9169 64.3313 13.8752C64.2541 13.8336 64.186 13.7769 64.131 13.7085C64.0761 13.6401 64.0353 13.5614 64.0113 13.4771C63.9872 13.3927 63.9803 13.3044 63.9909 13.2173C64.0208 13.0406 64.1184 12.8826 64.263 12.7767C64.4075 12.6708 64.5876 12.6254 64.7651 12.6502C64.8524 12.6585 64.9372 12.6843 65.0144 12.726C65.0916 12.7676 65.1597 12.8243 65.2147 12.8927C65.2696 12.961 65.3103 13.0397 65.3344 13.1241C65.3584 13.2085 65.3654 13.2968 65.3548 13.3839Z" fill="#263238"/>
<path d="M66.4172 12.9298C66.3182 13.0018 65.8726 12.5337 65.1434 12.4076C64.4142 12.2816 63.8201 12.5517 63.7526 12.4481C63.685 12.3446 63.8336 12.2591 64.0991 12.1285C64.4527 11.9679 64.8469 11.9192 65.2289 11.989C65.6083 12.0537 65.9569 12.2383 66.2237 12.5156C66.4172 12.7272 66.4667 12.8982 66.4172 12.9298Z" fill="#263238"/>
<path d="M68.1052 18.795C68.5102 18.7432 68.9201 18.7432 69.325 18.795C69.5141 18.795 69.6986 18.795 69.7527 18.6824C69.8009 18.4935 69.7915 18.2944 69.7256 18.1108C69.6311 17.6292 69.5321 17.125 69.4241 16.5984C69.0145 14.4513 68.7579 12.6959 68.8434 12.6779C68.9289 12.6599 69.3295 14.3928 69.7437 16.5444C69.8382 17.071 69.9327 17.5751 70.0182 18.0568C70.0974 18.3016 70.0862 18.5667 69.9867 18.804C69.9483 18.8645 69.8969 18.9158 69.8361 18.9539C69.7754 18.9921 69.7069 19.0162 69.6356 19.0245C69.5279 19.0366 69.4192 19.0366 69.3115 19.0245C68.9015 18.9981 68.4963 18.921 68.1052 18.795Z" fill="#263238"/>
<path d="M67.092 27.4955C64.6002 27.0894 62.2704 25.9986 60.3628 24.3447C60.3628 24.3447 61.4386 28.2697 66.804 28.7018L67.092 27.4955Z" fill="#EB996E"/>
<path d="M67.4885 20.4957C67.3793 20.2984 67.2224 20.1315 67.0321 20.0105C66.8418 19.8894 66.6242 19.8179 66.3992 19.8025C66.237 19.7899 66.0738 19.8097 65.9193 19.8607C65.7648 19.9117 65.6219 19.9929 65.499 20.0996C65.3803 20.2042 65.2967 20.3429 65.2597 20.4967C65.2226 20.6506 65.2339 20.8121 65.2919 20.9593C65.3856 21.108 65.5208 21.226 65.6808 21.2988C65.8407 21.3716 66.0185 21.396 66.1922 21.3689C66.5562 21.3053 66.9046 21.1723 67.2184 20.9773C67.3114 20.9331 67.3953 20.872 67.466 20.7972C67.4998 20.762 67.5221 20.7173 67.5302 20.6692C67.5382 20.621 67.5315 20.5715 67.511 20.5272" fill="#EB996E"/>
<path d="M65.8998 18.9202C66.0213 18.9202 65.8998 19.7214 66.4579 20.401C67.0161 21.0807 67.8938 21.1437 67.8803 21.2563C67.8668 21.3688 67.6642 21.3733 67.3086 21.3238C66.8451 21.2487 66.4228 21.0129 66.1158 20.6576C65.8193 20.3159 65.6689 19.8713 65.6972 19.4198C65.7017 19.0867 65.8233 18.9021 65.8998 18.9202Z" fill="#263238"/>
<path d="M61.9519 2.88243C63.3608 5.99273 67.9249 9.77371 71.4539 11.1151C71.1298 10.4759 69.1493 8.67093 68.8297 8.03176C70.252 9.57566 72.3091 11.6732 74.4831 12.1998C74.7335 12.2828 75.0026 12.2906 75.2573 12.2223C75.3979 12.1506 75.5201 12.0475 75.6145 11.9211C75.7089 11.7947 75.7731 11.6483 75.802 11.4932C76.2236 9.92542 76.4741 8.31662 76.5492 6.69491C76.6233 5.32726 76.1725 3.9829 75.2888 2.93644C74.087 1.58609 72.138 0.937928 70.2385 0.532823C68.6753 0.129409 67.048 0.0376419 65.4493 0.262754C63.8874 0.559831 62.429 1.46006 61.9609 2.78791" fill="#263238"/>
<path d="M53.5394 14.5899C53.5133 13.388 53.5584 12.1856 53.6744 10.989C54.03 8.24329 54.8897 -1.73579 64.0991 0.829876L63.1178 3.39104C63.1178 3.39104 63.8245 9.8142 59.0983 13.2621C59.0983 13.2621 59.1208 19.6763 55.844 21.9898C55.844 21.9898 53.5619 17.6417 53.5394 14.6079" fill="#263238"/>
<path d="M59.2963 12.8131C58.7517 12.5924 58.157 12.5254 57.5769 12.6196C56.9976 12.72 56.4806 13.0431 56.1365 13.5198C55.8241 14.0216 55.7132 14.623 55.8259 15.2032C55.9422 15.779 56.1852 16.3218 56.5371 16.7921C56.7651 17.1458 57.0736 17.4404 57.4374 17.6519C57.6228 17.7515 57.83 17.8037 58.0405 17.8037C58.251 17.8037 58.4583 17.7515 58.6437 17.6519" fill="#FFBE9D"/>
<path d="M58.3828 16.1748C58.4413 16.2063 58.1353 16.5034 57.6446 16.2738C57.5158 16.2036 57.4022 16.1086 57.3102 15.9942C57.2183 15.8799 57.1499 15.7485 57.109 15.6076C57.0048 15.2901 56.965 14.955 56.9919 14.6219C57.0107 14.2657 57.1578 13.9283 57.4061 13.6721C57.5094 13.5621 57.6366 13.4774 57.7778 13.4243C57.9191 13.3712 58.0706 13.3513 58.2208 13.366C58.7564 13.4471 58.8554 13.8432 58.7924 13.8432C58.7294 13.8432 58.5719 13.6496 58.2073 13.6721C57.9814 13.7169 57.779 13.8408 57.6362 14.0215C57.4935 14.2022 57.4199 14.4278 57.4286 14.6579C57.3881 15.252 57.5186 15.8237 57.8022 16.0082C58.0857 16.1928 58.3558 16.1208 58.3828 16.1748Z" fill="#EB996E"/>
<path d="M112.622 13.245C112.56 13.3809 112.477 13.5056 112.374 13.6141C112.079 13.9269 111.699 14.146 111.28 14.2443C110.616 14.4106 109.917 14.3617 109.282 14.1047C108.467 13.7456 107.709 13.2694 107.031 12.6914C106.257 12.1062 105.393 11.413 104.286 11.1745C103.713 11.0662 103.123 11.0909 102.562 11.2465C101.962 11.421 101.382 11.6547 100.829 11.9442C100.253 12.2367 99.6674 12.5608 99.0283 12.8444C98.3921 13.1561 97.7008 13.3397 96.9937 13.3845C96.2479 13.4092 95.5134 13.1964 94.8962 12.7769C94.2862 12.3334 93.7539 11.7919 93.3208 11.1745C92.4206 9.97715 91.6914 8.67632 90.5931 7.8256C90.0601 7.40681 89.4242 7.13937 88.7521 7.0514C88.102 6.97812 87.4444 7.00697 86.8031 7.13692C85.5428 7.37098 84.3635 7.77158 83.2022 7.92012C82.1246 8.05022 81.0318 7.9552 79.9929 7.64105C78.4857 7.19238 77.138 6.32255 76.1084 5.1339C75.7302 4.70506 75.415 4.22462 75.1721 3.70703C75.1991 3.73336 75.2219 3.76374 75.2396 3.79706C75.2846 3.87358 75.3432 3.9636 75.4152 4.07613C76.4873 5.73829 78.1322 6.94915 80.0379 7.47901C81.0597 7.77885 82.1326 7.86315 83.1887 7.72657C84.323 7.57353 85.4933 7.16843 86.7896 6.92536C87.4523 6.78499 88.1333 6.75306 88.8061 6.83084C89.5166 6.92183 90.1896 7.20161 90.7551 7.64105C91.9074 8.54128 92.6411 9.85562 93.5324 11.0349C93.9482 11.6319 94.4609 12.1553 95.0493 12.5833C95.6248 12.9768 96.3105 13.177 97.0073 13.155C97.6862 13.1129 98.3501 12.937 98.9608 12.6373C99.5774 12.3673 100.158 12.0477 100.739 11.7371C101.306 11.4405 101.901 11.2022 102.517 11.0259C103.104 10.8675 103.72 10.8444 104.317 10.9584C105.359 11.2694 106.319 11.8092 107.126 12.5383C107.787 13.1143 108.526 13.5933 109.322 13.9607C109.931 14.2162 110.604 14.2775 111.249 14.1362C111.656 14.0452 112.031 13.8462 112.334 13.5601C112.541 13.3755 112.613 13.2405 112.622 13.245Z" fill="#263238"/>
</svg>
