<svg width="25" height="24" viewBox="0 0 25 24" fill="none" xmlns="http://www.w3.org/2000/svg">
<g clip-path="url(#clip0_3287_5358)">
<path d="M21.8333 3.33301H3.16667C2.45942 3.33301 1.78115 3.61396 1.28105 4.11406C0.780952 4.61415 0.5 5.29243 0.5 5.99967L0.5 11.9997H24.5V5.99967C24.5 5.29243 24.219 4.61415 23.719 4.11406C23.2189 3.61396 22.5406 3.33301 21.8333 3.33301Z" fill="#DC1F26"/>
<path d="M24.5 18C24.5 18.7072 24.219 19.3855 23.719 19.8856C23.2189 20.3857 22.5406 20.6667 21.8333 20.6667H3.16667C2.45942 20.6667 1.78115 20.3857 1.28105 19.8856C0.780952 19.3855 0.5 18.7072 0.5 18V12H24.5V18Z" fill="#EEEEEE"/>
</g>
<defs>
<clipPath id="clip0_3287_5358">
<rect width="24" height="24" fill="white" transform="translate(0.5)"/>
</clipPath>
</defs>
</svg>
